<?xml version="1.0" encoding="UTF-8" standalone="no"?>
<!DOCTYPE svg PUBLIC "-//W3C//DTD SVG 1.1//EN"
 "http://www.w3.org/Graphics/SVG/1.1/DTD/svg11.dtd">
<!-- Generated by graphviz version 2.40.1 (20161225.0304)
 -->
<!-- Title: G Pages: 1 -->
<svg width="719pt" height="282pt"
 viewBox="0.00 0.00 718.91 282.00" xmlns="http://www.w3.org/2000/svg" xmlns:xlink="http://www.w3.org/1999/xlink">
<g id="graph0" class="graph" transform="scale(1 1) rotate(0) translate(4 278)">
<title>G</title>
<polygon fill="#ffffff" stroke="transparent" points="-4,4 -4,-278 714.9055,-278 714.9055,4 -4,4"/>
<!-- A0 -->
<g id="node1" class="node">
<title>A0</title>
<polygon fill="none" stroke="#000000" points="349.3655,-274 236.6585,-274 232.6585,-270 232.6585,-238 345.3655,-238 349.3655,-242 349.3655,-274"/>
<polyline fill="none" stroke="#000000" points="345.3655,-270 232.6585,-270 "/>
<polyline fill="none" stroke="#000000" points="345.3655,-270 345.3655,-238 "/>
<polyline fill="none" stroke="#000000" points="345.3655,-270 349.3655,-274 "/>
<text text-anchor="middle" x="291.012" y="-253" font-family="Helvetica,sans-Serif" font-size="10.00" fill="#000000">Presentation Server</text>
</g>
<!-- A1 -->
<g id="node2" class="node">
<title>A1</title>
<polygon fill="none" stroke="#000000" points="334.4021,-201 251.6219,-201 247.6219,-197 247.6219,-165 330.4021,-165 334.4021,-169 334.4021,-201"/>
<polyline fill="none" stroke="#000000" points="330.4021,-197 247.6219,-197 "/>
<polyline fill="none" stroke="#000000" points="330.4021,-197 330.4021,-165 "/>
<polyline fill="none" stroke="#000000" points="330.4021,-197 334.4021,-201 "/>
<text text-anchor="middle" x="291.012" y="-180" font-family="Helvetica,sans-Serif" font-size="10.00" fill="#000000">Policy Server</text>
</g>
<!-- A0&#45;&gt;A1 -->
<g id="edge1" class="edge">
<title>A0&#45;&gt;A1</title>
<path fill="none" stroke="#000000" d="M291.012,-237.9551C291.012,-226.7241 291.012,-212.3298 291.012,-201.0904"/>
</g>
<!-- A2 -->
<g id="node3" class="node">
<title>A2</title>
<polygon fill="none" stroke="#000000" points="466.2992,-124 359.7248,-124 355.7248,-120 355.7248,-88 462.2992,-88 466.2992,-92 466.2992,-124"/>
<polyline fill="none" stroke="#000000" points="462.2992,-120 355.7248,-120 "/>
<polyline fill="none" stroke="#000000" points="462.2992,-120 462.2992,-88 "/>
<polyline fill="none" stroke="#000000" points="462.2992,-120 466.2992,-124 "/>
<text text-anchor="middle" x="411.012" y="-103" font-family="Helvetica,sans-Serif" font-size="10.00" fill="#000000">Documents Server</text>
</g>
<!-- A1&#45;&gt;A2 -->
<g id="edge2" class="edge">
<title>A1&#45;&gt;A2</title>
<path fill="none" stroke="#000000" d="M319.1467,-164.9469C338.2663,-152.6785 363.4676,-136.5076 382.6378,-124.2068"/>
</g>
<!-- A6 -->
<g id="node7" class="node">
<title>A6</title>
<polygon fill="none" stroke="#000000" points="587.529,-124 488.495,-124 484.495,-120 484.495,-88 583.529,-88 587.529,-92 587.529,-124"/>
<polyline fill="none" stroke="#000000" points="583.529,-120 484.495,-120 "/>
<polyline fill="none" stroke="#000000" points="583.529,-120 583.529,-88 "/>
<polyline fill="none" stroke="#000000" points="583.529,-120 587.529,-124 "/>
<text text-anchor="middle" x="536.012" y="-103" font-family="Helvetica,sans-Serif" font-size="10.00" fill="#000000">Database Server</text>
</g>
<!-- A1&#45;&gt;A6 -->
<g id="edge5" class="edge">
<title>A1&#45;&gt;A6</title>
<path fill="none" stroke="#000000" d="M334.7223,-170.6772C372.1384,-159.9518 427.3542,-143.7033 475.012,-128 478.8613,-126.7317 482.8343,-125.385 486.82,-124.0071"/>
</g>
<!-- A7 -->
<g id="node8" class="node">
<title>A7</title>
<polygon fill="#fff8dc" stroke="#000000" points="102.036,-128 -.012,-128 -.012,-84 108.036,-84 108.036,-122 102.036,-128"/>
<polyline fill="none" stroke="#000000" points="102.036,-128 102.036,-122 "/>
<polyline fill="none" stroke="#000000" points="108.036,-122 102.036,-122 "/>
<text text-anchor="middle" x="54.012" y="-115" font-family="Helvetica,sans-Serif" font-size="10.00" fill="#000000">To be clustered to</text>
<text text-anchor="middle" x="54.012" y="-103" font-family="Helvetica,sans-Serif" font-size="10.00" fill="#000000">meet throughput</text>
<text text-anchor="middle" x="54.012" y="-91" font-family="Helvetica,sans-Serif" font-size="10.00" fill="#000000">needs</text>
</g>
<!-- A1&#45;&gt;A7 -->
<g id="edge7" class="edge">
<title>A1&#45;&gt;A7</title>
<path fill="none" stroke="#000000" stroke-dasharray="5,2" d="M247.2755,-169.5712C212.0169,-158.6503 161.2041,-142.6968 117.012,-128 114.1538,-127.0494 111.2263,-126.065 108.2731,-125.0635"/>
</g>
<!-- A8 -->
<g id="node9" class="node">
<title>A8</title>
<polygon fill="none" stroke="#000000" points="226.2292,-124 129.7948,-124 125.7948,-120 125.7948,-88 222.2292,-88 226.2292,-92 226.2292,-124"/>
<polyline fill="none" stroke="#000000" points="222.2292,-120 125.7948,-120 "/>
<polyline fill="none" stroke="#000000" points="222.2292,-120 222.2292,-88 "/>
<polyline fill="none" stroke="#000000" points="222.2292,-120 226.2292,-124 "/>
<text text-anchor="middle" x="176.012" y="-103" font-family="Helvetica,sans-Serif" font-size="10.00" fill="#000000">Directory Server</text>
</g>
<!-- A1&#45;&gt;A8 -->
<g id="edge8" class="edge">
<title>A1&#45;&gt;A8</title>
<path fill="none" stroke="#000000" d="M264.0496,-164.9469C245.7266,-152.6785 221.5754,-136.5076 203.2039,-124.2068"/>
</g>
<!-- A9 -->
<g id="node10" class="node">
<title>A9</title>
<polygon fill="none" stroke="#000000" points="337.569,-124 248.455,-124 244.455,-120 244.455,-88 333.569,-88 337.569,-92 337.569,-124"/>
<polyline fill="none" stroke="#000000" points="333.569,-120 244.455,-120 "/>
<polyline fill="none" stroke="#000000" points="333.569,-120 333.569,-88 "/>
<polyline fill="none" stroke="#000000" points="333.569,-120 337.569,-124 "/>
<text text-anchor="middle" x="291.012" y="-109" font-family="Helvetica,sans-Serif" font-size="10.00" fill="#000000">Underwriting &amp;</text>
<text text-anchor="middle" x="291.012" y="-97" font-family="Helvetica,sans-Serif" font-size="10.00" fill="#000000">Rating Server</text>
</g>
<!-- A1&#45;&gt;A9 -->
<g id="edge9" class="edge">
<title>A1&#45;&gt;A9</title>
<path fill="none" stroke="#000000" d="M291.012,-164.7521C291.012,-152.4777 291.012,-136.3639 291.012,-124.1169"/>
</g>
<!-- A3 -->
<g id="node4" class="node">
<title>A3</title>
<polygon fill="none" stroke="#000000" points="643.1905,-201 552.8335,-201 548.8335,-197 548.8335,-165 639.1905,-165 643.1905,-169 643.1905,-201"/>
<polyline fill="none" stroke="#000000" points="639.1905,-197 548.8335,-197 "/>
<polyline fill="none" stroke="#000000" points="639.1905,-197 639.1905,-165 "/>
<polyline fill="none" stroke="#000000" points="639.1905,-197 643.1905,-201 "/>
<text text-anchor="middle" x="596.012" y="-180" font-family="Helvetica,sans-Serif" font-size="10.00" fill="#000000">Product Server</text>
</g>
<!-- A4 -->
<g id="node5" class="node">
<title>A4</title>
<polygon fill="none" stroke="#000000" points="710.7992,-124 609.2248,-124 605.2248,-120 605.2248,-88 706.7992,-88 710.7992,-92 710.7992,-124"/>
<polyline fill="none" stroke="#000000" points="706.7992,-120 605.2248,-120 "/>
<polyline fill="none" stroke="#000000" points="706.7992,-120 706.7992,-88 "/>
<polyline fill="none" stroke="#000000" points="706.7992,-120 710.7992,-124 "/>
<text text-anchor="middle" x="658.012" y="-103" font-family="Helvetica,sans-Serif" font-size="10.00" fill="#000000">Document Server</text>
</g>
<!-- A3&#45;&gt;A4 -->
<g id="edge3" class="edge">
<title>A3&#45;&gt;A4</title>
<path fill="none" stroke="#000000" d="M610.7051,-164.7521C620.5884,-152.4777 633.5631,-136.3639 643.4243,-124.1169"/>
</g>
<!-- A3&#45;&gt;A6 -->
<g id="edge6" class="edge">
<title>A3&#45;&gt;A6</title>
<path fill="none" stroke="#000000" d="M581.7928,-164.7521C572.2284,-152.4777 559.6722,-136.3639 550.1291,-124.1169"/>
</g>
<!-- A5 -->
<g id="node6" class="node">
<title>A5</title>
<polygon fill="none" stroke="#000000" points="698.2933,-36 621.7307,-36 617.7307,-32 617.7307,0 694.2933,0 698.2933,-4 698.2933,-36"/>
<polyline fill="none" stroke="#000000" points="694.2933,-32 617.7307,-32 "/>
<polyline fill="none" stroke="#000000" points="694.2933,-32 694.2933,0 "/>
<polyline fill="none" stroke="#000000" points="694.2933,-32 698.2933,-36 "/>
<text text-anchor="middle" x="658.012" y="-15" font-family="Helvetica,sans-Serif" font-size="10.00" fill="#000000">Workstation</text>
</g>
<!-- A4&#45;&gt;A5 -->
<g id="edge4" class="edge">
<title>A4&#45;&gt;A5</title>
<path fill="none" stroke="#000000" d="M658.012,-87.7663C658.012,-72.6634 658.012,-51.3068 658.012,-36.2103"/>
<text text-anchor="middle" x="677.1835" y="-57" font-family="Helvetica,sans-Serif" font-size="10.00" fill="#000000">ASP.Net</text>
</g>
</g>
</svg>
